<?xml version="1.0" standalone="no"?><!DOCTYPE svg PUBLIC "-//W3C//DTD SVG 1.1//EN" "http://www.w3.org/Graphics/SVG/1.1/DTD/svg11.dtd"><svg t="1586866101041" class="icon" viewBox="0 0 1024 1024" version="1.1" xmlns="http://www.w3.org/2000/svg" p-id="3524" xmlns:xlink="http://www.w3.org/1999/xlink" width="200" height="200"><defs><style type="text/css"></style></defs><path d="M510.92992 14.1312c-273.08032 0-494.45888 221.37344-494.45888 494.45376s221.37856 494.45888 494.45888 494.45888 494.45376-221.37856 494.45376-494.45888S784.01024 14.1312 510.92992 14.1312zM717.24544 630.33344c-5.65248 5.33504-13.184 8.27392-21.2224 8.27392s-15.57504-2.944-21.2224-8.27392l-134.0416-126.65344 0 259.34848c0 15.3088-13.38368 27.76064-29.82912 27.76064-16.44544 0-29.82912-12.45184-29.82912-27.76064L481.1008 503.68l-134.0416 126.66368c-5.62176 5.3248-13.14816 8.25856-21.20192 8.25856-8.07936 0-15.62112-2.93888-21.24288-8.2688-5.52448-5.21728-8.57088-12.13952-8.57088-19.4816s3.0464-14.25408 8.57088-19.47648l185.1136-174.90944c5.63712-5.34016 13.16352-8.2688 21.20192-8.2688 8.0384 0 15.56992 2.93376 21.20192 8.27392l185.1136 174.90432c5.52448 5.21728 8.56576 12.1344 8.56576 19.47648S722.77504 625.11616 717.24544 630.33344zM703.12448 367.58528 318.73024 367.58528c-17.72544 0-32.13824-13.45536-32.13824-29.99808 0-16.50176 14.4128-29.93152 32.13824-29.93152l384.39424 0c17.72032 0 32.13824 13.42464 32.13824 29.93152C735.26272 354.12992 720.8448 367.58528 703.12448 367.58528z" p-id="3525" fill="#f4ea2a"></path></svg>