<?xml version="1.0" standalone="no"?><!DOCTYPE svg PUBLIC "-//W3C//DTD SVG 1.1//EN" "http://www.w3.org/Graphics/SVG/1.1/DTD/svg11.dtd"><svg t="1587442027474" class="icon" viewBox="0 0 1024 1024" version="1.1" xmlns="http://www.w3.org/2000/svg" p-id="1451" xmlns:xlink="http://www.w3.org/1999/xlink" width="200" height="200"><defs><style type="text/css"></style></defs><path d="M938.581333 242.525867V96.247467A36.471467 36.471467 0 0 0 902.024533 59.733333H130.5088a36.471467 36.471467 0 0 0-36.522667 36.522667v146.2272A36.471467 36.471467 0 0 0 59.733333 278.869333v150.3232c0 27.818667 5.495467 54.8864 16.443734 80.366934a202.999467 202.999467 0 0 0 17.8176 32.9728v393.710933A36.565333 36.565333 0 0 0 130.5088 972.8h771.515733a36.471467 36.471467 0 0 0 36.522667-36.522667V542.5408A204.014933 204.014933 0 0 0 972.8 429.192533v-150.272a36.471467 36.471467 0 0 0-34.261333-36.394666h0.042666zM176.1024 141.969067h680.2432v100.4288H176.145067V141.969067h-0.042667z m413.175467 748.808533H443.2128V771.985067h146.107733v118.792533h-0.042666z m267.067733 0H662.306133V735.428267a36.471467 36.471467 0 0 0-36.514133-36.522667H406.698667a36.471467 36.471467 0 0 0-36.522667 36.522667v155.349333H176.1536V614.331733a205.713067 205.713067 0 0 0 90.624 20.667734c27.869867 0 54.792533-5.376 80.3584-16.068267a210.628267 210.628267 0 0 0 44.1856-25.224533 0.725333 0.725333 0 0 1 0.682667 0 207.146667 207.146667 0 0 0 44.142933 25.224533 205.713067 205.713067 0 0 0 80.3584 16.068267c27.869867 0 54.801067-5.376 80.366933-16.068267a209.2544 209.2544 0 0 0 44.142934-25.224533 0.725333 0.725333 0 0 1 0.682666 0 209.5616 209.5616 0 0 0 44.1856 25.224533 205.713067 205.713067 0 0 0 80.3584 16.068267 206.139733 206.139733 0 0 0 90.581334-20.667734v276.445867h-0.469334z m34.218667-461.5424c0 68.266667-55.901867 123.562667-124.714667 123.562667a125.013333 125.013333 0 0 1-108.654933-62.634667 18.2784 18.2784 0 0 0-15.889067-9.2416h-0.682667a18.4064 18.4064 0 0 0-15.854933 9.250133 124.672 124.672 0 0 1-108.526933 62.634667 124.893867 124.893867 0 0 1-108.433067-62.378667 18.833067 18.833067 0 0 0-32.64 0 125.141333 125.141333 0 0 1-108.526933 62.421334c-68.855467 0-124.757333-55.3984-124.757334-123.613867V325.1456c0-0.341333 0.213333-0.554667 0.554667-0.554667h747.5712c0.341333 0 0.554667 0.213333 0.554667 0.554667V429.226667z" p-id="1452"></path></svg>