<?xml version="1.0" standalone="no"?><!DOCTYPE svg PUBLIC "-//W3C//DTD SVG 1.1//EN" "http://www.w3.org/Graphics/SVG/1.1/DTD/svg11.dtd"><svg t="1587127919315" class="icon" viewBox="0 0 1024 1024" version="1.1" xmlns="http://www.w3.org/2000/svg" p-id="1090" xmlns:xlink="http://www.w3.org/1999/xlink" width="200" height="200"><defs><style type="text/css"></style></defs><path d="M954.4192 464.6912H228.522667l434.500266-378.948267c3.191467-2.696533 4.352-7.125333 2.8928-11.050666A9.847467 9.847467 0 0 0 656.503467 68.266667h-109.738667c-4.778667 0-9.403733 1.723733-13.021867 4.864L64.8704 481.928533A39.970133 39.970133 0 0 0 51.2 512.042667c0 11.554133 4.983467 22.536533 13.6704 30.122666l471.492267 411.093334c1.826133 1.595733 4.053333 2.474667 6.434133 2.474666h113.544533c4.1216 0 7.808-2.56 9.2416-6.4512a9.924267 9.924267 0 0 0-2.816-10.939733L228.437333 559.3856h725.905067c5.4784 0 9.924267-4.462933 9.924267-9.966933v-74.837334c0-5.504-4.437333-9.966933-9.924267-9.966933l0.085333 0.085333z" p-id="1091"></path></svg>