<?xml version="1.0" standalone="no"?><!DOCTYPE svg PUBLIC "-//W3C//DTD SVG 1.1//EN" "http://www.w3.org/Graphics/SVG/1.1/DTD/svg11.dtd"><svg t="1587442111077" class="icon" viewBox="0 0 1024 1024" version="1.1" xmlns="http://www.w3.org/2000/svg" p-id="1061" xmlns:xlink="http://www.w3.org/1999/xlink" width="200" height="200"><defs><style type="text/css"></style></defs><path d="M307 428.719c0-24.261 19.667-43.929 43.929-43.929 24.26 0 43.928 19.668 43.928 43.929 0 24.26-19.667 43.928-43.928 43.928-24.262 0-43.929-19.667-43.929-43.928z m322.143 0c0-24.261 19.667-43.929 43.928-43.929 24.262 0 43.929 19.668 43.929 43.929 0 24.26-19.667 43.928-43.929 43.928-24.26 0-43.928-19.667-43.928-43.928zM512 102c226.415 0 410 183.585 410 410S738.415 922 512 922 102 738.415 102 512s183.585-410 410-410z m240.692 650.692c31.3-31.208 55.917-67.632 73.031-108.174 17.755-41.915 26.723-86.485 26.723-132.518s-8.968-90.603-26.631-132.426c-17.206-40.543-41.732-76.967-73.032-108.266-31.299-31.3-67.723-55.917-108.265-73.031-41.915-17.755-86.485-26.723-132.518-26.723s-90.603 8.968-132.426 26.631c-40.543 17.206-76.967 41.732-108.266 73.032-31.3 31.299-55.917 67.723-73.031 108.265-17.755 41.915-26.723 86.485-26.723 132.518s8.968 90.603 26.631 132.426c17.206 40.543 41.732 76.967 73.032 108.266 31.299 31.3 67.723 55.917 108.265 73.031 41.915 17.755 86.485 26.723 132.518 26.723s90.603-8.968 132.426-26.723c40.543-17.205 76.967-41.732 108.266-73.031zM651.107 531.219c4.21 0 7.505 3.477 7.322 7.687-4.027 77.15-68.181 138.741-146.429 138.741s-142.402-61.591-146.429-138.74c-0.183-4.21 3.112-7.688 7.322-7.688h44.02c3.844 0 7.138 2.928 7.413 6.772 3.386 45.301 41.457 81.085 87.674 81.085 46.217 0 84.196-35.784 87.674-81.085 0.275-3.844 3.57-6.772 7.413-6.772h44.02z" p-id="1062"></path></svg>