<?xml version="1.0" standalone="no"?><!DOCTYPE svg PUBLIC "-//W3C//DTD SVG 1.1//EN" "http://www.w3.org/Graphics/SVG/1.1/DTD/svg11.dtd"><svg t="1587442057185" class="icon" viewBox="0 0 1024 1024" version="1.1" xmlns="http://www.w3.org/2000/svg" p-id="1578" xmlns:xlink="http://www.w3.org/1999/xlink" width="200" height="200"><defs><style type="text/css"></style></defs><path d="M881.6384 783.274667a396.8256 396.8256 0 0 0-86.016-126.788267 400.384 400.384 0 0 0-127.419733-85.589333l-1.28-0.512c93.038933-66.833067 132.1472-185.728 96.8192-294.357334C728.4224 167.3984 626.730667 93.815467 511.982933 93.866667c-114.807467-0.085333-216.558933 73.5232-251.869866 182.212266-35.310933 108.689067 3.874133 227.6352 96.9984 294.4256l-1.271467 0.512a397.294933 397.294933 0 0 0-127.428267 85.589334 398.148267 398.148267 0 0 0-86.016 126.788266A392.9088 392.9088 0 0 0 110.933333 929.9968 8.507733 8.507733 0 0 0 119.466667 938.666667h63.982933a8.4992 8.4992 0 0 0 8.567467-8.32 315.648 315.648 0 0 1 93.610666-216.8064 318.711467 318.711467 0 0 1 226.3552-93.269334c85.572267 0 165.888 33.1264 226.338134 93.269334a315.648 315.648 0 0 1 93.661866 216.849066 8.4224 8.4224 0 0 0 8.5248 8.277334H904.533333a8.533333 8.533333 0 0 0 8.5248-8.721067 393.898667 393.898667 0 0 0-31.4624-146.670933h0.034134zM512.017067 539.605333a182.877867 182.877867 0 0 1-129.698134-53.486933 180.8896 180.8896 0 0 1-53.76-129.0496c0-48.733867 19.114667-94.532267 53.76-129.041067a182.7328 182.7328 0 0 1 129.706667-53.495466c48.981333 0 95.044267 19.0208 129.732267 53.495466 34.645333 34.466133 53.76 80.349867 53.76 129.041067 0 48.733867-19.114667 94.574933-53.76 129.0496a182.7328 182.7328 0 0 1-129.7408 53.486933z" p-id="1579"></path></svg>