<?xml version="1.0" standalone="no"?><!DOCTYPE svg PUBLIC "-//W3C//DTD SVG 1.1//EN" "http://www.w3.org/Graphics/SVG/1.1/DTD/svg11.dtd"><svg t="1587648037594" class="icon" viewBox="0 0 1024 1024" version="1.1" xmlns="http://www.w3.org/2000/svg" p-id="799" xmlns:xlink="http://www.w3.org/1999/xlink" width="200" height="200"><defs><style type="text/css"></style></defs><path d="M510.217881 130.653907a285.478788 285.478788 0 0 0-288.091866 282.539075 285.152153 285.152153 0 0 0 288.091866 282.212441 285.152153 285.152153 0 0 0 288.091866-282.212441A285.152153 285.152153 0 0 0 510.217881 130.653907zM177.377051 522.61563V261.307815h-10.452312a380.202871 380.202871 0 0 1 685.933014 0h-10.778947v261.307815a130.653907 130.653907 0 0 0 132.940351-130.653908 130.653907 130.653907 0 0 0-66.960128-114.648803 424.625199 424.625199 0 0 0-795.355662 0 130.653907 130.653907 0 0 0 65.326954 243.996172z m620.606061 149.598724a427.891547 427.891547 0 0 1-574.550558 0A383.469219 383.469219 0 0 0 0.014372 1024h1024a383.142584 383.142584 0 0 0-226.357895-353.092185z" fill="#1296DB" p-id="800"></path></svg>