<?xml version="1.0" standalone="no"?><!DOCTYPE svg PUBLIC "-//W3C//DTD SVG 1.1//EN" "http://www.w3.org/Graphics/SVG/1.1/DTD/svg11.dtd"><svg t="1585979777711" class="icon" viewBox="0 0 1024 1024" version="1.1" xmlns="http://www.w3.org/2000/svg" p-id="852" xmlns:xlink="http://www.w3.org/1999/xlink" width="200" height="200"><defs><style type="text/css"></style></defs><path d="M184.60672 402.75968v429.07648h206.06976V597.44256c0-8.33536 6.7584-15.07328 15.09376-15.07328h230.11328c8.35584 0 15.09376 6.73792 15.09376 15.07328v234.3936h184.38144V401.36704L510.85312 145.34656 184.60672 402.75968z m-65.06496 51.34336l-53.37088 42.0864c-9.40032 7.41376-23.04 5.79584-30.45376-3.60448l-13.43488-17.01888c-7.41376-9.40032-5.79584-23.04 3.60448-30.45376L497.39776 73.07264c7.8848-6.22592 19.00544-6.22592 26.89024 0l471.51104 372.0192a21.733376 21.733376 0 0 1 3.60448 30.49472l-13.45536 17.01888c-7.41376 9.40032-21.05344 11.01824-30.45376 3.60448l-55.07072-43.43808V849.3056c0 26.3168-21.31968 47.63648-47.63648 47.63648H167.17824c-26.3168 0-47.63648-21.31968-47.63648-47.63648V454.10304z m336.22016 366.87872h130.1504v-173.54752h-130.1504v173.54752z m0 0" p-id="853"></path></svg>