<?xml version="1.0" standalone="no"?><!DOCTYPE svg PUBLIC "-//W3C//DTD SVG 1.1//EN" "http://www.w3.org/Graphics/SVG/1.1/DTD/svg11.dtd"><svg t="1585979412467" class="icon" viewBox="0 0 1024 1024" version="1.1" xmlns="http://www.w3.org/2000/svg" p-id="1313" xmlns:xlink="http://www.w3.org/1999/xlink" width="200" height="200"><defs><style type="text/css"></style></defs><path d="M512 88.917333l448.227556 248.888889v497.720889c0 54.954667-44.600889 99.555556-99.612445 99.555556H636.586667v-124.359111a49.777778 49.777778 0 0 0-49.777778-49.834667h-99.555556a49.777778 49.777778 0 0 0-49.834666 49.834667v124.472888H163.612444c-55.011556 0-99.612444-44.600889-99.612444-99.555555V337.749333L512 88.917333zM431.104 326.485333L233.927111 432.696889a37.205333 37.205333 0 0 0-19.512889 33.28c-0.739556 2.844444-1.137778 5.688889-1.137778 8.704v174.193778a37.319111 37.319111 0 0 0 74.638223 0V488.277333l178.460444-96.085333a37.205333 37.205333 0 1 0-35.271111-65.706667z" fill="#9BACBE" p-id="1314"></path></svg>