<?xml version="1.0" standalone="no"?><!DOCTYPE svg PUBLIC "-//W3C//DTD SVG 1.1//EN" "http://www.w3.org/Graphics/SVG/1.1/DTD/svg11.dtd"><svg t="1585979349102" class="icon" viewBox="0 0 1024 1024" version="1.1" xmlns="http://www.w3.org/2000/svg" p-id="1184" xmlns:xlink="http://www.w3.org/1999/xlink" width="200" height="200"><defs><style type="text/css"></style></defs><path d="M376.832 474.112H130.048c-33.792 0-61.44-27.648-61.44-61.44V165.888c0-33.792 27.648-61.44 61.44-61.44h247.296c33.792 0 61.44 27.648 61.44 61.44v247.296a61.610667 61.610667 0 0 1-61.952 60.928z m363.008 51.2c-16.384 0-31.744-6.144-43.52-17.92L521.728 332.8a60.757333 60.757333 0 0 1-17.92-43.52c0-16.384 6.144-31.744 17.92-43.52l174.592-174.592c11.776-11.776 27.136-17.92 43.52-17.92 16.384 0 31.744 6.144 43.52 17.92l174.592 174.592c11.776 11.776 17.92 27.136 17.92 43.52 0 16.384-6.144 31.744-17.92 43.52L783.36 507.392a60.757333 60.757333 0 0 1-43.52 17.92z m-363.008 435.2H130.048c-33.792 0-61.44-27.648-61.44-61.44v-247.296c0-33.792 27.648-61.44 61.44-61.44h247.296c33.792 0 61.44 27.648 61.44 61.44v247.296a61.724444 61.724444 0 0 1-61.952 61.44z m486.4 0h-247.296c-33.792 0-61.44-27.648-61.44-61.44v-247.296c0-33.792 27.648-61.44 61.44-61.44h247.296c33.792 0 61.44 27.648 61.44 61.44v247.296c0 34.304-27.136 61.44-61.44 61.44z" fill="#9BACBE" p-id="1185"></path></svg>