<?xml version="1.0" standalone="no"?><!DOCTYPE svg PUBLIC "-//W3C//DTD SVG 1.1//EN" "http://www.w3.org/Graphics/SVG/1.1/DTD/svg11.dtd"><svg t="1585979539285" class="icon" viewBox="0 0 1024 1024" version="1.1" xmlns="http://www.w3.org/2000/svg" p-id="1442" xmlns:xlink="http://www.w3.org/1999/xlink" width="200" height="200"><defs><style type="text/css"></style></defs><path d="M479.982301 550.379705a262.390324 262.390324 0 1 0 0-524.780649 262.390324 262.390324 0 0 0 0 524.780649z m0-76.797168a185.593156 185.593156 0 1 1 0-371.186313 185.593156 185.593156 0 0 1 0 371.186313z" fill="#5C7792" p-id="1443"></path><path d="M884.959367 655.71982C796.002647 562.091273 654.567863 511.981121 491.885862 511.981121 205.048439 511.981121 0 664.67949 0 913.502315c0 36.414657 14.91145 69.501437 42.174445 97.724396a42.430435 42.430435 0 0 0 58.749833 1.791934 39.614539 39.614539 0 0 0 1.855932-57.085895c-13.439504-13.887488-19.647276-27.646981-19.647276-42.430435 0-198.77667 163.705963-320.756172 408.752928-320.756173 141.050799 0 260.150407 42.238442 331.955759 117.755658a42.430435 42.430435 0 0 0 58.749833 2.303915 39.614539 39.614539 0 0 0 2.367913-57.085895z" fill="#5C7792" p-id="1444"></path><path d="M703.974041 831.969321m31.99882 0l255.99056 0q31.99882 0 31.99882 31.99882l0 0q0 31.99882-31.99882 31.99882l-255.99056 0q-31.99882 0-31.99882-31.99882l0 0q0-31.99882 31.99882-31.99882Z" fill="#5C7792" p-id="1445"></path><path d="M575.978761 959.964601m31.99882 0l383.98584 0q31.99882 0 31.99882 31.99882l0 0q0 31.99882-31.99882 31.99882l-383.98584 0q-31.99882 0-31.99882-31.99882l0 0q0-31.99882 31.99882-31.99882Z" fill="#5C7792" p-id="1446"></path></svg>