<?xml version="1.0" standalone="no"?><!DOCTYPE svg PUBLIC "-//W3C//DTD SVG 1.1//EN" "http://www.w3.org/Graphics/SVG/1.1/DTD/svg11.dtd"><svg t="1585979547170" class="icon" viewBox="0 0 1024 1024" version="1.1" xmlns="http://www.w3.org/2000/svg" p-id="1568" xmlns:xlink="http://www.w3.org/1999/xlink" width="200" height="200"><defs><style type="text/css"></style></defs><path d="M954.652444 745.813333a190.748444 190.748444 0 0 0-29.752888-64.455111l33.393777-55.637333-29.582222-29.582222-57.571555 34.645333a186.709333 186.709333 0 0 0-60.586667-24.064l-16.611556-66.446222h-41.699555l-16.668445 66.446222a184.32 184.32 0 0 0-60.131555 24.348444l-58.026667-34.872888-29.582222 29.582222 33.507555 55.864889c-13.937778 19.342222-24.120889 41.187556-29.980444 64.284444l-59.335111 14.791111v41.870222l55.068444 13.767112c3.754667 26.965333 13.312 52.792889 27.989334 75.662222l-27.249778 45.511111 29.525333 29.582222 43.463111-26.112c23.096889 17.408 50.062222 29.980444 79.644445 35.214222l11.776 46.819556h41.699555l11.719111-46.876445a187.448889 187.448889 0 0 0 79.530667-35.157333l43.576889 26.168889 29.525333-29.582222-27.534222-45.909334c14.279111-22.414222 24.576-47.729778 28.273778-75.320888l55.068444-13.767112v-41.813333l-59.448889-14.961778z m-181.589333 149.731556a104.448 104.448 0 0 1 0-208.952889 104.448 104.448 0 0 1 0 208.952889z m-185.059555-324.664889a365.909333 365.909333 0 0 0-113.095112-55.068444 240.64 240.64 0 0 0 137.272889-216.917334 241.322667 241.322667 0 1 0-482.702222 0c0 95.402667 55.921778 177.095111 136.248889 216.348445-148.650667 43.804444-256.910222 177.891556-256.910222 336.725333 0 0 185.116444 50.289778 368.128 50.289778 47.274667 0 94.264889-3.527111 137.955555-8.704a279.893333 279.893333 0 0 1-23.381333-111.957334c0-84.309333 37.831111-159.118222 96.483556-210.716444z" fill="#9BACBE" p-id="1569"></path></svg>